HIERARCHY
ROOT HipCenter
{
    OFFSET 0.0 0.0 -0.0
    CHANNELS 6 Xposition Yposition Zposition Zrotation Xrotation Yrotation
    JOINT Spine
    {
        OFFSET 0.0 11.721613883972168 0.0
        CHANNELS 3 Zrotation Xrotation Yrotation
        JOINT ShoulderCenter
        {
            OFFSET 0.0 31.77381706237793 0.0
            CHANNELS 3 Zrotation Xrotation Yrotation
            JOINT LeftShoulder
            {
                OFFSET 18.010040283203125 0.0 0.0
                CHANNELS 3 Zrotation Xrotation Yrotation
                JOINT LeftElbow
                {
                    OFFSET 32.60741424560547 0.0 0.0
                    CHANNELS 3 Zrotation Xrotation Yrotation
                    JOINT LeftWrist
                    {
                        OFFSET 27.714447021484375 0.0 0.0
                        CHANNELS 3 Zrotation Xrotation Yrotation
                        JOINT LeftHand
                        {
                            OFFSET 3.4892609119415283 0.0 0.0
                            CHANNELS 3 Zrotation Xrotation Yrotation
                            End Site
                            {
                                OFFSET 1.3957042694091797 0.0 0.0
                            }
                        }
                    }
                }
            }
            JOINT RightShoulder
            {
                OFFSET -18.010040283203125 0.0 0.0
                CHANNELS 3 Zrotation Xrotation Yrotation
                JOINT RightElbow
                {
                    OFFSET -32.60741424560547 0.0 0.0
                    CHANNELS 3 Zrotation Xrotation Yrotation
                    JOINT RightWrist
                    {
                        OFFSET -27.714447021484375 0.0 0.0
                        CHANNELS 3 Zrotation Xrotation Yrotation
                        JOINT RightHand
                        {
                            OFFSET -3.4892609119415283 0.0 0.0
                            CHANNELS 3 Zrotation Xrotation Yrotation
                            End Site
                            {
                                OFFSET -1.3957042694091797 0.0 0.0
                            }
                        }
                    }
                }
            }
            End Site
            {
                OFFSET 0.0 12.709527015686035 0.0
            }
        }
    }
    JOINT LeftHip
    {
        OFFSET 14.216002464294434 0.0 0.0
        CHANNELS 3 Zrotation Xrotation Yrotation
        JOINT LeftKnee
        {
            OFFSET 0.0 -46.875877380371094 0.0
            CHANNELS 3 Zrotation Xrotation Yrotation
            JOINT LeftAnkle
            {
                OFFSET 0.0 -43.35424041748047 0.0
                CHANNELS 3 Zrotation Xrotation Yrotation
                JOINT LeftFoot
                {
                    OFFSET 0.0 -11.571256637573242 0.0
                    CHANNELS 3 Zrotation Xrotation Yrotation
                    End Site
                    {
                        OFFSET 0.0 0.0 4.62850284576416
                    }
                }
            }
        }
    }
    JOINT RightHip
    {
        OFFSET -14.216002464294434 0.0 0.0
        CHANNELS 3 Zrotation Xrotation Yrotation
        JOINT RightKnee
        {
            OFFSET 0.0 -46.875877380371094 0.0
            CHANNELS 3 Zrotation Xrotation Yrotation
            JOINT RightAnkle
            {
                OFFSET 0.0 -43.35424041748047 0.0
                CHANNELS 3 Zrotation Xrotation Yrotation
                JOINT RightFoot
                {
                    OFFSET 0.0 -11.571256637573242 0.0
                    CHANNELS 3 Zrotation Xrotation Yrotation
                    End Site
                    {
                        OFFSET 0.0 0.0 4.62850284576416
                    }
                }
            }
        }
    }
}
MOTION
Frames: 8
Frame Time: 0.03333333333333333
55.599998474121094 1.3000000715255737 -46.5 8.054393660553362 -23.702550779246657 -123.68380212842852 14.140938908837445 -0.05842030883153169 0.024101214173939532 -1.7711972393679305e-06 -1.4992133699340498e-06 -11.155481292337937 96.6452718329721 -16.141963877849157 -175.28097700886784 3.9633347976773745e-06 5.740320194329754e-06 43.47506993396318 179.99999621777476 -43.93123566187182 -145.73596929357663 -7.95138670365879e-15 0.0 0.0 -137.73837726111523 57.61992793013121 -160.49939473581296 -9.683345063237408e-07 -2.3754974611660913e-06 -50.98407956545557 -1.9869791328971717e-06 -44.03636497738697 -24.57795575925891 0.0 0.0 0.0 -18.792050762926106 -28.629783730192738 9.034346460747297 -16.550098087630204 53.5193591893994 -23.73096210631298 91.17935186638694 -43.48518768646414 114.94742381193086 -6.3611093629270335e-15 -3.1805546814635176e-15 9.54166404439055e-15 -5.519943847822232 -45.90423231939829 -29.350254305658964 -35.68625709022558 24.229312010431137 62.91051594121794 47.07133724024472 -85.7342192296017 -16.07034175611399 -5.565970692561154e-15 -7.724336021587778e-32 1.5902773407317584e-15
54.000003814697266 1.600000023841858 -46.70000076293945 8.054456011015242 -24.149707193969352 -123.42700495230466 13.676910743994872 -0.654739485684633 0.265981476684012 -3.933237902806175e-07 2.0259698661712134e-07 -10.90245839072074 96.66502571149945 -15.584475808839086 -174.9878604217761 -5.920759864659195e-07 6.114641226248987e-06 43.6839747735264 -179.99999880161408 -41.74627871406202 -144.5958322824306 -1.987846675914698e-15 5.517382872562698e-32 -3.1805546814635168e-15 -138.6377092219633 57.15231230576993 -159.3732088903314 9.859974180495134e-07 2.9635147601602072e-06 -50.92660487757617 3.443638261112588e-06 -45.24709953176363 -24.898461499735703 -6.3611093629270335e-15 0.0 0.0 -17.097019626748494 -31.508668273603032 11.716544391610658 -13.237576337534026 54.92029991232679 -27.99361332346811 95.19421561269492 -40.86591648256524 123.52818559402344 -4.4139062980501586e-32 -3.1805546814635168e-15 -1.5902773407317584e-15 -6.765801334030978 -44.73767332963052 -28.37069248668864 -34.95810464131554 24.759207102360335 65.25596261965592 3.7816740127695425 -88.18486707388156 -59.28302813179653 -6.7586786981099735e-15 3.1805546814635168e-15 -1.5902773407317582e-15
52.29999923706055 1.899999976158142 -46.900001525878906 7.454285415412127 -23.979822067755094 -123.64995835650393 13.482779547307773 -0.15684359757931068 0.06227801945410382 5.836489944340568e-07 7.475082726951855e-07 -10.960075150664029 96.50888423581677 -14.54634316011987 -174.56607598185403 -9.425514343474133e-07 8.174355544280573e-07 43.80883306189572 -179.999997811834 -42.40082407901281 -145.82201716349135 9.144094709207609e-15 0.0 0.0 -137.9754184225449 56.97713943189609 -160.0981163839045 -2.0243929175263633e-06 1.8668574720769724e-06 -50.882380991694916 -2.8767792215075564e-07 -42.76223038619249 -24.717679361957774 0.0 0.0 3.1805546814635168e-15 -15.184086536695936 -33.43473483012578 15.766162254808997 -6.571505467207798 54.95072833458353 -34.92185926758882 98.35675303817705 -39.747267580313405 132.35097560713203 0.0 0.0 0.0 -7.708043048083892 -43.136026491137116 -28.74252282774312 -34.86844169080595 24.761430005216848 67.37060631425138 -69.22739849048509 -88.48337103403794 -132.68515965117825 6.7586786981099735e-15 -3.1805546814635168e-15 1.8759101766713175e-31
50.70000457763672 2.200000047683716 -47.0 7.5238477096272804 -24.17680964839326 -123.19312447227215 13.482907354696463 -0.7606596008046141 0.30662429378153766 -1.3087813519605785e-07 -4.086185097745721e-07 -11.562967391899099 96.1359679745134 -14.176902305696354 -174.77262733684427 1.5287389389173694e-06 4.275824690546091e-07 44.42008247720929 179.99999810449776 -41.72966403604249 -145.44032612102671 -5.565970692561154e-15 0.0 0.0 -137.3232752181263 57.542099957122375 -160.7948755010855 2.1035292753340417e-06 2.58723432662879e-07 -50.64975382892038 6.8670161751266056e-06 -41.807940282603425 -24.91223793872777 -1.7655625192200634e-31 6.3611093629270335e-15 3.1805546814635168e-15 -13.92705499303117 -35.70729224800553 19.109401331891355 0.7694792188829453 53.050725462431224 -42.31492428269393 100.5807200256241 -38.53112026247049 140.86504491783194 -4.4139062980501586e-32 -3.1805546814635176e-15 -1.5902773407317588e-15 -8.84732000912166 -42.00272213041861 -28.300006824992607 -34.16081586628116 25.161991182346778 69.11423149516011 -88.73542463941743 -85.94397174833166 -152.1020398624369 -7.95138670365879e-16 0.0 0.0
49.0 2.4000000953674316 -47.099998474121094 6.991920848283074 -23.75424109127244 -124.04469696296839 13.702275287225438 -0.33527703000121706 0.13447691653248228 3.0495105788672275e-07 2.6458732993424763e-06 -11.037280995609438 95.99889858807049 -14.605565848317392 -174.9120882419931 1.1378753432602807e-06 3.002288523733943e-06 44.87405538770056 179.9999944051872 -43.23001054341632 -144.60260963668435 -2.3854160110976384e-15 0.0 0.0 -136.73958909848068 57.20393961002088 -161.53366061642348 2.8477193236248327e-06 2.3227654332025944e-07 -50.64683477132578 -3.452333518067747e-06 -45.46274300399133 -25.448236335517034 0.0 0.0 1.5902773407317582e-15 -11.798990502471943 -36.851467704985005 22.536686655552945 5.605868543951631 49.633763838670475 -46.471315579370085 104.54586416354283 -38.429961348059486 149.19571950824198 -1.3241718894150476e-31 3.180554681463516e-15 4.7708320221952736e-15 -9.086474113768801 -40.43423318702575 -28.081065411603806 -33.84462489133606 24.888971594415622 70.12185989210592 -90.4587132320733 -86.07528395451621 -154.2522150504072 -3.578124016646457e-15 -3.1805546814635168e-15 3.1805546814635168e-15
47.29999923706055 2.6000001430511475 -47.099998474121094 6.991922360368508 -24.202134475717074 -124.14482731048625 13.430675619667959 -1.1718359834940546 0.4622899703069678 -1.2466157459128397e-06 -6.843105553888146e-07 -11.653381701004042 95.65447727062507 -14.432815602863062 -175.49284188164032 -5.16249615521112e-06 4.501762847275541e-06 44.95839932360171 179.99999921356658 -42.04499068998912 -145.9271714246293 2.3854160110976384e-15 0.0 0.0 -136.2185633667201 56.67637515847247 -162.42034242914673 1.2690819429919425e-06 1.8594156957549452e-06 -50.84942197055722 3.6779599501339834e-07 -43.20431180819833 -23.338543783271945 -1.7655625192200634e-31 6.3611093629270335e-15 3.1805546814635168e-15 -10.537010554758412 -38.50496880047458 25.295858128296643 9.207505261325304 45.543478561144084 -49.23216367344803 107.2351390478379 -39.43189261910036 155.10970699614452 6.3611093629270335e-15 3.1805546814635168e-15 -1.7655625192200634e-31 -10.522692531928138 -39.48520118652865 -27.973326263432295 -32.786004934991524 25.103779035715824 70.83471506111574 -92.8323273462408 -84.55623579440858 -156.545381024856 7.55381736847585e-15 0.0 0.0
45.599998474121094 2.8999998569488525 -47.099998474121094 6.3989391968804155 -23.58203002843441 -125.00378763953611 13.74939457751589 -0.39302240040982683 0.15414252217653193 3.7797526894482453e-07 1.1875400052347497e-06 -11.420490074923661 95.46229725146357 -14.623914691555406 -175.58770725065045 -1.060466501807946e-06 -4.801669285605405e-06 44.93860882358752 -179.99999731840273 -42.12359303018684 -145.5372874297458 -2.3854160110976384e-15 0.0 0.0 -134.6714648924778 56.71429849023832 -164.2006179195309 8.199466293340458e-06 4.5682230467027245e-07 -50.89144171049183 1.2290402511751596e-06 -43.398081695348026 -24.95033030976503 6.361109362927032e-15 6.361109362927032e-15 1.5902773407317576e-15 -8.349554060403902 -38.67623110868868 27.992733956930067 10.884135108800278 40.792872025562126 -49.32634462353812 108.52142980205588 -42.26528535562229 158.64821090491446 8.827812596100317e-32 6.3611093629270335e-15 -1.5902773407317584e-15 -11.022223440641497 -37.5378892738759 -27.832268259259138 -31.766149777229987 24.744975304259256 71.1304911582293 -93.59795096675941 -84.1425627382075 -157.73368261100416 -2.782985346280577e-15 -1.5902773407317584e-15 1.5902773407317584e-15
43.900001525878906 3.200000047683716 -47.099998474121094 6.398980283403455 -23.58203027633764 -125.57133314790941 13.66528013700488 -0.7911772767577938 0.311466002734621 -2.740836459381617e-06 -2.4671417991993706e-06 -10.942828269042892 95.51863048278328 -16.047991407866114 -175.8637528224575 -5.505558150297999e-06 2.5203817894304744e-06 44.50612200335272 -179.99999795894843 -44.42062459981334 -144.8685722553504 1.5902773407317584e-15 -4.4139062980501586e-32 -3.1805546814635168e-15 -134.9970100467136 56.164000472681764 -164.05894945433747 7.832764130963459e-07 4.239295453478705e-07 -51.040945965876794 1.62778763993709e-06 -44.695804990374754 -24.78481476632657 -2.648343778830095e-31 6.3611093629270335e-15 4.770832022195275e-15 -6.624707976232804 -39.22142465490029 30.143938813701 11.593386018017767 35.48993844442431 -48.291870109484364 108.98723620801466 -46.66029118767309 161.50602770665466 8.827812596100317e-32 -3.1805546814635168e-15 3.1805546814635168e-15 -11.717125440783088 -36.18863785528512 -26.710507106312313 -29.934525048193603 24.621807666537848 70.23842891344358 -93.87152878315321 -83.00179189051937 -158.05551481272175 1.5902773407317584e-15 2.2069531490250793e-32 1.5902773407317584e-15
